<svg xmlns="http://www.w3.org/2000/svg" width="22.344" height="17.969" viewBox="0 0 22.344 17.969">
  <defs>
    <style>
      .cls-1 {
        fill: #545454;
        fill-rule: evenodd;
      }
    </style>
  </defs>
  <path id="ic_twitter" class="cls-1" d="M23.221,2.121a9.286,9.286,0,0,1-2.635.717A4.575,4.575,0,0,0,22.6.325a9.306,9.306,0,0,1-2.911,1.1,4.6,4.6,0,0,0-7.933,3.106,4.591,4.591,0,0,0,.117,1.036A13.074,13.074,0,0,1,2.424.825a4.519,4.519,0,0,0,1.42,6.061,4.622,4.622,0,0,1-2.076-.569V6.376a4.56,4.56,0,0,0,3.679,4.454,4.774,4.774,0,0,1-1.206.157,4.633,4.633,0,0,1-.866-0.081A4.587,4.587,0,0,0,7.66,14.059,9.267,9.267,0,0,1,1.962,16,9.552,9.552,0,0,1,.869,15.94,13.074,13.074,0,0,0,7.9,17.98,12.889,12.889,0,0,0,20.944,5.06c0-.195,0-0.393-0.013-0.587a9.337,9.337,0,0,0,2.291-2.352" transform="translate(-0.875)"/>
</svg>
