<?xml version="1.0" encoding="utf-8"?>
<!-- Generator: Adobe Illustrator 25.2.1, SVG Export Plug-In . SVG Version: 6.00 Build 0)  -->
<svg version="1.1" id="Laag_1" xmlns="http://www.w3.org/2000/svg" xmlns:xlink="http://www.w3.org/1999/xlink" x="0px" y="0px"
	 viewBox="0 0 382.13 261.49" style="enable-background:new 0 0 382.13 261.49;" xml:space="preserve">
<style type="text/css">
	.st0{fill:#FFFFFF;}
</style>
<g>
	<path class="st0" d="M35.95,207.92v-6.14c-0.04-0.75-0.65-1.35-1.4-1.37H1.42c-0.77,0.02-1.4,0.65-1.42,1.42v6.03
		c0.03,0.78,0.64,1.4,1.42,1.43h10.84c0.39,0.01,0.7,0.33,0.71,0.72v34.54c0,0.78,0.61,1.43,1.39,1.47h7.24
		c0.75-0.04,1.36-0.65,1.39-1.4v-34.77c0.08-0.32,0.36-0.55,0.68-0.56h10.89c0.75-0.03,1.35-0.63,1.39-1.38"/>
	<path class="st0" d="M48.45,234.37c0.02,0.9-0.19,1.78-0.61,2.58c-0.41,0.72-0.98,1.34-1.67,1.8c-0.7,0.5-1.48,0.88-2.3,1.13
		c-0.89,0.26-1.8,0.39-2.73,0.39c-1.08,0-2.15-0.29-3.08-0.84c-0.95-0.5-1.52-1.51-1.47-2.58c-0.05-0.96,0.34-1.88,1.06-2.51
		c0.75-0.63,1.62-1.09,2.56-1.36c1.03-0.3,2.08-0.48,3.15-0.54c1.11-0.07,2.02-0.1,2.73-0.1h1.67c0.38,0.03,0.68,0.34,0.69,0.73
		V234.37z M54.41,216.26c-1.15-1.42-2.67-2.5-4.38-3.12c-2.24-0.78-4.6-1.14-6.96-1.06c-2.54-0.01-5.05,0.42-7.45,1.25
		c-1.9,0.65-3.67,1.62-5.24,2.87c-0.53,0.58-0.51,1.48,0.05,2.03l3,3.09c0.58,0.58,1.51,0.58,2.09,0c0.74-0.66,1.55-1.22,2.43-1.67
		c1.35-0.67,2.83-1.01,4.34-1c1.58-0.03,3.11,0.51,4.34,1.51c1.13,0.94,1.74,2.63,1.82,5.33c-0.06,0.36-0.37,0.62-0.73,0.62
		c-1.13,0-2.32,0-3.6,0.07c-1.57,0.04-3.13,0.17-4.69,0.39c-1.54,0.2-3.05,0.54-4.53,1c-1.39,0.42-2.7,1.06-3.89,1.9
		c-1.13,0.81-2.05,1.87-2.69,3.1c-0.71,1.42-1.05,2.99-1,4.58c-0.03,1.45,0.28,2.88,0.9,4.19c0.58,1.18,1.42,2.22,2.44,3.03
		c1.06,0.83,2.27,1.46,3.56,1.84c1.37,0.41,2.79,0.62,4.21,0.61c1.93,0,3.84-0.37,5.62-1.1c1.38-0.57,2.59-1.47,3.54-2.62h0.04h0.06
		c0.2-0.09,0.44-0.05,0.6,0.1c0.09,0.1,0.14,0.22,0.15,0.36v1.13c0.02,0.77,0.64,1.38,1.4,1.42h6.06c0.77-0.03,1.38-0.66,1.4-1.43
		v-14.55c0.02-2.94-0.19-5.88-0.64-8.79c-0.36-1.84-1.14-3.58-2.28-5.06"/>
	<path class="st0" d="M144.29,234.37c0.06,1.75-0.79,3.4-2.24,4.38c-0.69,0.5-1.46,0.88-2.27,1.13c-0.88,0.26-1.8,0.39-2.72,0.39
		c-1.08,0-2.15-0.29-3.09-0.84c-0.95-0.5-1.52-1.5-1.48-2.58c-0.05-0.96,0.34-1.88,1.06-2.51c0.75-0.63,1.62-1.09,2.56-1.36
		c1.03-0.3,2.08-0.48,3.15-0.54c1.09-0.07,2-0.1,2.74-0.1h1.67c0.38,0.03,0.68,0.34,0.69,0.73L144.29,234.37z M150.32,216.26
		c-1.15-1.42-2.66-2.5-4.37-3.12c-2.24-0.78-4.6-1.14-6.97-1.06c-2.54-0.01-5.05,0.42-7.45,1.25c-1.89,0.65-3.66,1.62-5.23,2.87
		c-0.54,0.57-0.54,1.46,0,2.03l3,3.09c0.58,0.58,1.51,0.58,2.09,0c0.74-0.66,1.56-1.22,2.45-1.67c1.35-0.67,2.83-1.01,4.34-1
		c1.58-0.03,3.11,0.51,4.34,1.51c1.13,0.94,1.73,2.63,1.82,5.33c-0.05,0.36-0.36,0.62-0.73,0.62c-1.12,0-2.32,0-3.59,0.07
		c-1.57,0.04-3.13,0.17-4.69,0.39c-1.54,0.2-3.05,0.54-4.53,1c-1.39,0.42-2.71,1.06-3.89,1.9c-1.12,0.81-2.04,1.87-2.69,3.1
		c-0.7,1.42-1.04,2.99-0.99,4.58c-0.03,1.45,0.28,2.88,0.9,4.19c0.57,1.18,1.41,2.22,2.43,3.03c1.06,0.84,2.27,1.46,3.56,1.84
		c1.37,0.41,2.79,0.62,4.21,0.61c1.93,0.01,3.84-0.37,5.62-1.1c1.38-0.57,2.6-1.47,3.54-2.62h0.06c0.2-0.1,0.44-0.06,0.6,0.1
		c0.1,0.1,0.15,0.22,0.15,0.36v1.13c0.03,0.77,0.64,1.38,1.4,1.42h6.06c0.77-0.03,1.38-0.66,1.4-1.43v-14.55
		c0.03-2.94-0.19-5.88-0.64-8.79c-0.36-1.84-1.14-3.58-2.28-5.06"/>
	<path class="st0" d="M227.07,234.37c0.02,0.9-0.19,1.78-0.6,2.58c-0.4,0.72-0.98,1.34-1.67,1.8c-0.71,0.49-1.5,0.86-2.33,1.1
		c-0.89,0.26-1.8,0.39-2.73,0.39c-1.08,0-2.15-0.29-3.09-0.84c-0.95-0.5-1.52-1.5-1.48-2.58c-0.05-0.95,0.34-1.88,1.05-2.51
		c0.76-0.63,1.63-1.09,2.58-1.36c1.02-0.3,2.08-0.48,3.15-0.54c1.11-0.07,2.02-0.1,2.73-0.1h1.67c0.38,0.03,0.68,0.34,0.69,0.73
		L227.07,234.37z M233.1,216.26c-1.15-1.41-2.66-2.49-4.37-3.12c-2.24-0.78-4.6-1.14-6.96-1.06c-2.54-0.01-5.06,0.42-7.46,1.25
		c-1.9,0.65-3.67,1.62-5.24,2.87c-0.53,0.58-0.5,1.48,0.05,2.03l3,3.09c0.58,0.58,1.51,0.58,2.09,0c0.74-0.66,1.56-1.22,2.44-1.67
		c1.35-0.67,2.83-1.01,4.34-1c1.58-0.03,3.12,0.51,4.34,1.51c1.13,0.94,1.73,2.63,1.83,5.33c-0.06,0.36-0.37,0.62-0.73,0.62
		c-1.12,0-2.33,0-3.6,0.07c-1.57,0.04-3.13,0.17-4.69,0.39c-1.53,0.2-3.05,0.54-4.53,1c-1.39,0.42-2.7,1.06-3.89,1.9
		c-1.12,0.81-2.04,1.87-2.69,3.1c-0.71,1.42-1.05,2.99-1,4.58c-0.03,1.45,0.28,2.88,0.9,4.19c0.58,1.18,1.41,2.22,2.44,3.03
		c1.06,0.84,2.27,1.46,3.56,1.84c1.35,0.41,2.76,0.62,4.17,0.61c1.93,0.01,3.84-0.37,5.62-1.1c1.38-0.56,2.61-1.46,3.55-2.62h0.05
		c0.2-0.1,0.44-0.06,0.6,0.1c0.09,0.1,0.14,0.22,0.15,0.36v1.13c0.02,0.76,0.63,1.38,1.39,1.42h6.07c0.77-0.03,1.38-0.66,1.4-1.43
		v-14.55c0.02-2.94-0.19-5.88-0.64-8.79c-0.36-1.84-1.14-3.58-2.28-5.06"/>
	<path class="st0" d="M112.34,224.96H101.2c-0.39,0-0.71-0.3-0.72-0.69c0.09-0.53,0.24-1.04,0.46-1.53c0.32-0.7,0.78-1.34,1.35-1.87
		c0.61-0.56,1.32-1.01,2.09-1.32c0.9-0.36,1.86-0.53,2.83-0.51c1.61-0.06,3.18,0.57,4.3,1.73c0.92,0.94,1.49,2.18,1.58,3.5
		c-0.02,0.39-0.34,0.69-0.73,0.69 M118.79,216.55c-1.27-1.45-2.85-2.6-4.62-3.35c-1.93-0.79-3.99-1.18-6.07-1.16
		c-2.31-0.02-4.6,0.38-6.77,1.16c-2.05,0.74-3.92,1.88-5.53,3.35c-1.57,1.46-2.83,3.22-3.69,5.19c-1.79,4.97-1.79,10.42,0,15.4
		c0.86,1.96,2.12,3.73,3.69,5.18c1.6,1.48,3.48,2.61,5.53,3.35c2.17,0.79,4.46,1.18,6.77,1.16c2.53,0,5.03-0.56,7.32-1.62
		c1.8-0.79,3.43-1.93,4.8-3.35c0.51-0.57,0.51-1.42,0-1.99l-4.37-3.21l-0.32-0.23c-0.57-0.33-1.29-0.23-1.76,0.23
		c-0.61,0.68-1.31,1.28-2.07,1.78c-1.21,0.74-2.61,1.1-4.02,1.06c-1.74,0.05-3.43-0.55-4.75-1.67c-1.47-1.49-2.36-3.47-2.5-5.57
		c0-0.36,0.26-0.66,0.61-0.71h20.31c0.78-0.04,1.39-0.69,1.39-1.47v-1.56c0.03-2.3-0.32-4.59-1.03-6.77
		c-0.62-1.91-1.61-3.67-2.92-5.19"/>
	<path class="st0" d="M81.83,229.9L81.83,229.9l-0.22-0.3c-0.27-0.46-0.27-1.04,0-1.5l11.24-14.06c0.24-0.3,0.21-0.75-0.08-1.01
		c-0.13-0.12-0.3-0.18-0.48-0.18h-8.85c-0.92,0-1.79,0.43-2.35,1.16l-0.48,0.62l-8.65,11.15c0,0.04-0.08,0.08-0.11,0.13v0.04
		c-0.02,0.03-0.05,0.05-0.08,0.07c-0.02,0-0.04,0-0.06,0c-0.2,0.09-0.43,0.06-0.59-0.1c-0.07-0.07-0.13-0.17-0.15-0.27v-26.97
		c-0.04-0.74-0.62-1.34-1.35-1.39h-6.92c-0.74,0.06-1.33,0.67-1.36,1.41v45.91c0.03,0.76,0.64,1.37,1.39,1.4h6.85
		c0.75-0.03,1.36-0.63,1.39-1.38v-13c0.02-0.1,0.07-0.2,0.15-0.27c0.16-0.16,0.39-0.19,0.59-0.1c0.02,0,0.04,0,0.06,0
		c0.03,0.02,0.06,0.04,0.08,0.07c0.05,0.07,0.11,0.14,0.17,0.21l8.41,12.65l0.48,0.62c0.55,0.71,1.4,1.14,2.3,1.15h9.34
		c0.11-0.02,0.2-0.07,0.28-0.13c0.22-0.22,0.29-0.55,0.16-0.84L81.83,229.9z"/>
	<path class="st0" d="M206.51,215.18c0.12-0.31,0.18-0.64,0.17-0.97v-0.18c-0.14-0.66-0.7-1.14-1.37-1.17h-5.5
		c-1.38,0-2.58,0.96-2.88,2.32l-0.18,0.66l-4.64,17.07c-0.11,0.13-0.28,0.21-0.45,0.22c-0.22-0.02-0.41-0.14-0.51-0.34l-0.08-0.27
		l-4.63-17.25l-0.08-0.31c-0.39-1.23-1.52-2.06-2.8-2.06h-6.01c-1.37,0-2.56,0.95-2.87,2.29v0.16l-0.13,0.52l-4.21,17.01
		c-0.11,0.16-0.29,0.27-0.49,0.28c-0.19-0.01-0.37-0.1-0.48-0.26l-5-17.02l-0.23-0.8c-0.01-0.05-0.03-0.1-0.05-0.14
		c-0.41-1.2-1.53-2-2.79-2h-6.06c-0.67,0.04-1.23,0.52-1.37,1.17c-0.01,0.06-0.01,0.12,0,0.18c-0.01,0.33,0.05,0.66,0.17,0.97
		l9.87,28.8c0.06,0.16,0.12,0.28,0.13,0.32c0.45,0.94,1.36,1.58,2.4,1.67h5.84c1.2-0.09,2.23-0.92,2.59-2.08l0.24-0.84l4.59-16.54
		c0.11-0.14,0.28-0.23,0.46-0.25c0.18,0.02,0.34,0.11,0.46,0.25l5.25,16.88c0.1,0.32,0.22,0.63,0.36,0.94
		c0.45,0.94,1.36,1.58,2.4,1.67h5.69c1.04-0.09,1.96-0.72,2.4-1.67c0.07-0.13,0.26-0.69,0.39-1.06l9.34-27.92
		c0.01-0.06,0.02-0.12,0.04-0.18"/>
	<path class="st0" d="M270.06,214.01L270.06,214.01c0-0.1-0.05-0.17-0.08-0.25c-0.22-0.51-0.71-0.85-1.26-0.89h-5.84
		c-1.11,0.04-2.11,0.71-2.57,1.72c-0.04,0.09-0.07,0.18-0.1,0.27l-0.04,0.15c-0.03,0.08-0.05,0.16-0.06,0.24l-0.18,0.56l-5.31,17.44
		l-0.08,0.22c-0.08,0.32-0.37,0.54-0.69,0.52c-0.3,0-0.57-0.17-0.68-0.45l-6.31-17.73l-0.08-0.23l-0.43-1.2
		c-0.5-0.92-1.46-1.51-2.5-1.53h-6.59c-0.47,0.09-0.87,0.4-1.08,0.84c-0.03,0.08-0.06,0.15-0.08,0.24
		c-0.05,0.25-0.03,0.51,0.04,0.76l12.58,30.73c0.18,0.64,0.14,1.33-0.12,1.94c0.01,0.03,0.01,0.07,0,0.1l-0.22,0.58
		c-0.34,0.84-0.66,1.61-0.96,2.26c-0.28,0.62-0.66,1.18-1.13,1.68c-0.47,0.46-1.04,0.82-1.67,1.03c-0.85,0.26-1.74,0.38-2.63,0.35
		h-4.17c-0.78,0.03-1.4,0.66-1.43,1.44v5.26c0.02,0.78,0.65,1.41,1.43,1.43h5.56c1.89,0.06,3.77-0.17,5.59-0.68
		c1.3-0.39,2.5-1.07,3.5-2c0.96-0.93,1.73-2.03,2.28-3.25c0.59-1.29,1.22-2.77,1.85-4.45l13.49-36.54c0.04-0.19,0.04-0.39,0-0.58"/>
	<path class="st0" d="M268.71,239.3c-0.96-0.03-1.9,0.36-2.54,1.08c-1.3,1.38-1.3,3.53,0,4.91c1.38,1.41,3.63,1.43,5.04,0.05
		c0.02-0.02,0.03-0.03,0.05-0.05c1.31-1.37,1.31-3.54,0-4.91C270.61,239.66,269.68,239.27,268.71,239.3"/>
	<path class="st0" d="M327.11,235.22c-0.96,2.69-2.98,4.86-5.6,5.99c-2.85,1.18-6.04,1.18-8.88,0c-1.29-0.56-2.45-1.38-3.41-2.41
		c-0.96-1.03-1.7-2.25-2.18-3.58c-0.51-1.74-0.76-3.55-0.75-5.37c-0.01-2.08,0.24-4.15,0.75-6.16c0.48-1.33,1.22-2.55,2.18-3.59
		c0.96-1.02,2.13-1.84,3.41-2.4c2.84-1.18,6.04-1.18,8.88,0c2.62,1.12,4.65,3.3,5.6,5.99c0.51,2.01,0.76,4.08,0.74,6.16
		C327.87,231.67,327.62,233.48,327.11,235.22 M328.67,216.59c-1.47-1.44-3.21-2.56-5.13-3.3c-4.19-1.56-8.8-1.56-13,0
		c-1.92,0.73-3.66,1.86-5.13,3.3c-1.43,1.43-2.57,3.14-3.34,5.02c-0.83,1.96-1.24,5.86-1.24,8.22c-0.03,2.53,0.39,5.04,1.24,7.42
		c1.54,3.86,4.62,6.9,8.5,8.37c4.19,1.56,8.8,1.56,12.99,0c1.91-0.74,3.66-1.86,5.13-3.29c1.43-1.44,2.56-3.14,3.34-5.02
		c0.85-2.4,1.27-4.93,1.24-7.47c0-2.39-0.41-6.26-1.24-8.22c-0.77-1.88-1.9-3.59-3.34-5.02"/>
	<path class="st0" d="M280.9,220.13c0.87-1.06,1.97-1.9,3.22-2.45c1.42-0.59,2.94-0.88,4.48-0.84c1.44-0.04,2.86,0.25,4.17,0.84
		c0.98,0.47,1.87,1.11,2.63,1.88c0.55,0.47,1.35,0.47,1.9,0l1.84-1.67c0.57-0.52,0.64-1.41,0.16-2.02c-1.26-1.14-2.71-2.05-4.3-2.66
		c-2.04-0.79-4.21-1.19-6.4-1.18c-2.19-0.03-4.37,0.39-6.4,1.21c-1.88,0.76-3.58,1.9-5,3.35c-1.4,1.46-2.49,3.19-3.21,5.08
		c-1.52,5.03-1.52,10.41,0,15.44c0.71,1.89,1.79,3.62,3.18,5.09c1.4,1.47,3.11,2.61,5,3.35c4.1,1.57,8.62,1.57,12.72,0
		c1.58-0.62,3.03-1.54,4.25-2.72c0.48-0.58,0.44-1.42-0.08-1.96l-1.63-1.55c-0.56-0.52-1.43-0.52-1.99,0
		c-1.79,1.84-4.28,2.84-6.85,2.74c-1.45,0.02-2.9-0.28-4.22-0.89c-1.24-0.57-2.33-1.4-3.21-2.44c-0.9-1.07-1.61-2.3-2.08-3.62
		c-0.5-1.86-0.76-3.78-0.74-5.71c-0.01-1.92,0.2-3.83,0.64-5.69c0.41-1.31,1.05-2.54,1.91-3.61"/>
	<path class="st0" d="M381.57,219.61c-0.34-1.47-1-2.85-1.94-4.03c-0.96-1.13-2.19-1.99-3.58-2.51c-1.75-0.63-3.6-0.93-5.45-0.88
		c-2.02-0.09-4.01,0.44-5.71,1.53c-1.25,0.89-2.33,1.99-3.21,3.25l-0.15,0.22l-0.08,0.11c-0.1,0.11-0.23,0.17-0.38,0.17
		c-0.19,0-0.37-0.11-0.46-0.29l-0.14-0.24l-0.46-0.77c-0.45-0.73-1.04-1.37-1.72-1.89c-0.83-0.64-1.77-1.15-2.76-1.5
		c-2.48-0.78-5.12-0.82-7.62-0.13c-1.04,0.29-2.04,0.73-2.96,1.3c-0.83,0.51-1.59,1.13-2.24,1.85c-0.22,0.23-0.4,0.48-0.59,0.74
		l-0.05,0.07l-0.08,0.1c-0.1,0.1-0.24,0.15-0.38,0.15c-0.25,0-0.46-0.17-0.52-0.41v-2.12c-0.02-0.77-0.64-1.39-1.41-1.42h-1.83
		c-0.78,0.04-1.4,0.68-1.41,1.46v30.21c0.01,0.79,0.65,1.43,1.43,1.44h2.19c0.8-0.01,1.44-0.67,1.44-1.47v-15.98
		c-0.02-1.6,0.17-3.21,0.56-4.76c0.31-1.33,0.88-2.59,1.67-3.71c0.76-1.04,1.76-1.87,2.93-2.41c1.34-0.59,2.8-0.88,4.26-0.84
		c2.07,0,3.56,0.71,4.47,2.12c0.91,1.41,1.37,3.81,1.37,7.2v18.41c0,0.8,0.64,1.44,1.44,1.46h2.2c0.8-0.02,1.43-0.67,1.43-1.47
		v-18.71c-0.02-1.25,0.19-2.5,0.62-3.68c0.37-1.04,0.94-2,1.67-2.83c0.7-0.77,1.55-1.4,2.5-1.83c0.96-0.43,2-0.65,3.05-0.64
		c1.25-0.05,2.5,0.2,3.64,0.72c0.9,0.43,1.68,1.08,2.28,1.88c0.57,0.8,0.96,1.71,1.17,2.67c0.22,1.01,0.33,2.03,0.32,3.06v19.42
		c0.02,0.78,0.65,1.41,1.43,1.43h2.2c0.8-0.02,1.43-0.67,1.43-1.47v-19.63c0.02-1.79-0.18-3.57-0.58-5.31"/>
	<path class="st0" d="M279.14,87.06c-5.86-9.84-12.33-19.3-19.38-28.32l-0.18-0.23l-0.06-0.07c-0.35-0.44-1.28-1.59-1.62-2.03
		c-3.22-4.42-2.77-7.64-2.77-7.64c-1.93-22.05-4.22-32.18-4.66-34.79c-0.53-3.07-1.4-6.27-5.84-6.74c-3.6-0.38-8.93-0.98-14.83-1.28
		c-4.95-0.25-5.56,4.82-5.56,4.82c-0.11,5.14,0,7.62,0,8.21c0,0.59-0.12,1.3-1.06,1.49c-0.38,0.01-0.76-0.1-1.08-0.32
		c-8.08-6.75-16.61-12.92-25.54-18.48c-1.77-1.04-3.78-1.62-5.84-1.67c-1.81,0.08-3.57,0.66-5.07,1.67
		c-2.65,1.67-48.06,27.54-82.43,85.1c0,0-2.14,3-0.53,5.82c0.91,1.71,2.69,2.78,4.63,2.75c0,0,11.93,1.4,14.33,1.67
		c2.71,0.28,2.69,2.51,2.69,2.51c-0.2,25.12,1.31,50.23,4.53,75.15c0,0,0.62,4.19,4.74,4.39c1.67,0.08,7.85-0.28,24.32-0.64
		c0.63,0.07,1.19-0.39,1.26-1.02c0.01-0.09,0.01-0.19-0.01-0.29c-1.58-16.35-2.08-30.5-2.12-31.32c-0.04-0.59-0.41-1.1-0.95-1.32
		c-6.08-3.49-9.85-9.95-9.91-16.98c-0.46-32.37,1.51-57.22,1.51-57.22s0.19-3.45,3.21-3.17c3.02,0.28,2.82,3.67,2.82,3.67
		c-1.08,13.94-1.5,39.08-1.5,39.08s0,4.78,4.56,4.77c4.56-0.01,4.56-4.77,4.56-4.77c-0.14-19.67,1.51-39.44,1.51-39.44
		s0-3.35,3.22-3.35c2.92,0,2.82,3.74,2.82,3.74c-1.37,17.08-1.5,39.02-1.5,39.02s0,4.78,4.56,4.77c4.56-0.01,4.55-5.16,4.55-5.16
		c-0.07-16.3,1.53-39.18,1.53-39.18c-0.08-1.67,1.21-3.08,2.87-3.16c0.1,0,0.19,0,0.29,0c2.71,0,2.87,3.15,2.87,3.15
		c-1.48,17.69-1.5,44.87-1.43,56.62c0.21,6.99-3.32,13.56-9.27,17.22c-0.55,0.37-0.84,1.02-0.77,1.67
		c0.38,10.76,1.28,22.7,2.05,31.25c0.03,0.58,0.48,1.04,1.05,1.1c4.55,0,9.53-0.06,15.01-0.06c8.81,0,16.1,0.06,22.56,0.15
		c0.73,0,1.08-0.54,1.13-1.28c1.67-15.49,2.25-26.71,2.34-27.69c0.1-1.1-1.26-1.31-1.26-1.31c-2.37-0.13-6.75-0.84-10.77-1.5
		c-4.02-0.66-4.17-5.25-4.17-5.25c-3.39-48.32,22.01-78.43,22.01-78.43s2.5-3.26,6.03-2.03c3.53,1.23,3.49,5.02,3.49,5.02
		c3.56,40.23,0.04,92.1-2.19,111.31c-0.16,0.7,0.28,1.39,0.98,1.55c0.07,0.02,0.14,0.03,0.21,0.03c10.84,0.32,15.92,0.63,17.31,0.47
		c2.48-0.26,4.47-2.15,4.85-4.62c5.4-37.43,4.58-74.96,4.58-74.96c0.11-1.34,1.17-2.4,2.5-2.51l14.62-1.57
		c1.85,0,3.55-1.05,4.39-2.7c0.86-1.81,0.77-3.93-0.26-5.66"/>
</g>
</svg>
