<?xml version="1.0" encoding="utf-8"?>
<!-- Generator: Adobe Illustrator 25.2.1, SVG Export Plug-In . SVG Version: 6.00 Build 0)  -->
<svg version="1.1" id="Laag_1" xmlns="http://www.w3.org/2000/svg" xmlns:xlink="http://www.w3.org/1999/xlink" x="0px" y="0px"
	 viewBox="0 0 382.13 426.29" style="enable-background:new 0 0 382.13 426.29;" xml:space="preserve">
<style type="text/css">
	.st0{fill:#FFFFFF;}
</style>
<g>
	<g>
		<path class="st0" d="M285.99,161.61c0-52.42-42.5-94.92-94.92-94.92s-94.92,42.5-94.92,94.92c0,52.42,42.5,94.92,94.92,94.92
			c20.69,0,39.77-6.69,55.36-17.92l-26.57-26.57c-8.49,4.86-18.3,7.68-28.79,7.68c-32.09,0-58.1-26.01-58.1-58.1
			s26.01-58.1,58.1-58.1c26.75,0,49.23,18.11,55.98,42.72h-92.83l30.07,30.07h100.44l-0.03-0.03h0.04
			C285.49,171.47,285.99,166.6,285.99,161.61z"/>
		<g>
			<path class="st0" d="M267.4,259.41c-21.07,16.47-47.52,26.37-76.33,26.37c-68.58,0-124.17-55.59-124.17-124.17
				c0-28.81,9.9-55.27,26.37-76.34L66.57,58.58C43.4,86.55,29.46,122.45,29.46,161.61c0,89.25,72.35,161.61,161.61,161.61
				c39.16,0,75.06-13.94,103.03-37.11L267.4,259.41z"/>
			<path class="st0" d="M114.62,63.89c21.09-16.52,47.58-26.45,76.44-26.45c68.58,0,124.17,55.59,124.17,124.17
				c0,28.86-9.93,55.36-26.45,76.44l26.68,26.68c23.22-27.98,37.2-63.92,37.2-103.13C352.67,72.35,280.32,0,191.07,0
				c-39.21,0-75.14,13.98-103.13,37.2L114.62,63.89z"/>
		</g>
	</g>
	<g>
		<g>
			<path class="st0" d="M61.83,382.89H49.49v42.51h12.34v-21.88c0-8.29,8.25-9.36,14.91-9.63v-11.72c-6.3,0-11.09,1.95-14.91,5.5
				V382.89z"/>
			<path class="st0" d="M160.1,385.37c-3.28-2.13-7.28-3.37-12.07-3.37c-11.72,0-21.21,9.76-21.21,22.1
				c0,12.51,9.5,22.19,21.21,22.19c4.79,0,8.79-1.24,12.07-3.37v2.49h12.34v-63.01H160.1V385.37z M160.1,410.93
				c-2.75,3.73-6.39,4.97-10.03,4.97c-6.48,0-11.01-5.5-11.01-11.8c0-6.21,4.53-11.63,11.01-11.63c3.64,0,7.28,1.24,10.03,4.88
				V410.93z"/>
			<rect x="182.32" y="382.89" class="st0" width="12.34" height="42.51"/>
			<polygon class="st0" points="223.21,409.4 212.35,382.89 199.3,382.89 217.7,425.4 228.71,425.4 247.11,382.89 234.06,382.89 			
				"/>
			<rect x="252.34" y="382.89" class="st0" width="12.34" height="42.51"/>
			<path class="st0" d="M298.59,399.84l-7.72-1.24c-3.91-0.71-5.06-2.4-5.06-3.99c0-1.95,2.04-3.64,6.3-3.64
				c4.08,0,7.54,1.51,7.81,5.33l11.27-0.09c-0.89-11.98-11.8-14.47-19.08-14.47c-10.92,0-18.37,5.24-18.37,14.02
				c0,7.9,6.04,11.45,12.51,12.6l9.05,1.51c2.84,0.53,4.26,1.86,4.26,3.55c0,2.22-2.93,3.64-7.19,3.64c-4.88,0-8.17-1.78-8.87-6.3
				l-11.27-0.09c0.89,12.07,10.21,16.06,20.06,16.06c10.83,0,19.17-4.79,19.17-14.38C311.45,404.37,305.51,401.08,298.59,399.84z"/>
			<rect x="319.29" y="382.89" class="st0" width="12.34" height="42.51"/>
			<path class="st0" d="M22.63,382C9.05,382,0,391.41,0,404.19c0,12.69,9.14,22.19,22.81,22.19c10.03,0,18.02-5.24,20.32-13.4H30.26
				c-1.33,2.13-3.73,3.2-7.19,3.2c-4.67,0-9.06-2.11-10.61-7.54H43.4c0.27-1.78,0.27-3.55,0.27-5.33
				C43.67,390.61,34.61,382,22.63,382z M12.31,400.02c1.37-5.82,5.82-7.9,9.97-7.9c5.15,0,8.43,2.93,9.14,7.9L12.31,400.02z"/>
			<path class="st0" d="M100.79,382c-13.58,0-22.63,9.41-22.63,22.19c0,12.69,9.14,22.19,22.81,22.19c10.03,0,18.02-5.24,20.32-13.4
				h-12.87c-1.33,2.13-3.73,3.2-7.19,3.2c-4.67,0-9.06-2.11-10.61-7.54h30.93c0.27-1.78,0.27-3.55,0.27-5.33
				C121.82,390.61,112.77,382,100.79,382z M90.47,400.02c1.38-5.82,5.82-7.9,9.97-7.9c5.15,0,8.43,2.93,9.14,7.9L90.47,400.02z"/>
			<path class="st0" d="M382.13,403.3c0-12.69-9.05-21.3-21.03-21.3c-13.58,0-22.63,9.41-22.63,22.19
				c0,12.69,9.14,22.19,22.81,22.19c10.03,0,18.02-5.24,20.32-13.4h-12.87c-1.33,2.13-3.73,3.2-7.19,3.2
				c-4.67,0-9.06-2.11-10.61-7.54h30.93C382.13,406.85,382.13,405.08,382.13,403.3z M350.78,400.02c1.37-5.82,5.82-7.9,9.97-7.9
				c5.15,0,8.43,2.93,9.14,7.9L350.78,400.02z"/>
		</g>
	</g>
</g>
</svg>
