<svg xmlns="http://www.w3.org/2000/svg" width="22" height="15.969" viewBox="0 0 22 15.969">
  <defs>
    <style>
      .cls-1 {
        fill: #545454;
        fill-rule: evenodd;
      }
    </style>
  </defs>
  <path id="ic_youtube" class="cls-1" d="M21.666,3.762a2.934,2.934,0,0,0-2.655-2.618C18.18,1.017,14.178.856,11,.856s-7.181.161-8.012,0.288A2.933,2.933,0,0,0,.335,3.762,43.954,43.954,0,0,0,0,8.7V8.967a44.044,44.044,0,0,0,.335,4.941,2.93,2.93,0,0,0,2.652,2.614c0.831,0.127,4.839.287,8.02,0.287l-0.015,0c3.181,0,7.185-.161,8.018-0.289a2.935,2.935,0,0,0,2.655-2.614A44.532,44.532,0,0,0,22,8.967V8.7A44.441,44.441,0,0,0,21.666,3.762Zm-13.3,7.955V5.949l5.274,2.816Z" transform="translate(0 -0.844)"/>
</svg>
