<svg xmlns="http://www.w3.org/2000/svg" width="21" height="21" viewBox="0 0 21 21">
  <defs>
    <style>
      .cls-1 {
        fill: #545454;
        fill-rule: evenodd;
      }
    </style>
  </defs>
  <path id="ic_linkedin" class="cls-1" d="M2.526,0A2.528,2.528,0,1,0,5.047,2.528,2.526,2.526,0,0,0,2.526,0ZM15.779,6.624a4.569,4.569,0,0,0-4.116,2.265H11.6V6.972H7.432V21h4.347V14.06c0-1.829.345-3.6,2.609-3.6,2.233,0,2.262,2.092,2.262,3.718V21H21V13.305C21,9.528,20.186,6.624,15.779,6.624ZM0.345,21H4.7V6.972H0.345V21Z"/>
</svg>
