<svg xmlns="http://www.w3.org/2000/svg" width="20.875" height="20.938" viewBox="0 0 20.875 20.938">
  <defs>
    <style>
      .cls-1 {
        fill: #545454;
        fill-rule: evenodd;
      }
    </style>
  </defs>
  <path id="ic_insta" class="cls-1" d="M15.97,7.7A2.517,2.517,0,0,0,13.448,4.96a34.71,34.71,0,0,0-3.619-.053,21.094,21.094,0,0,0-2.613.063A2.48,2.48,0,0,0,4.826,7.517a52.524,52.524,0,0,0,0,6,2.46,2.46,0,0,0,2.425,2.549,49.771,49.771,0,0,0,6.265.006,2.419,2.419,0,0,0,2.4-2.274,22.272,22.272,0,0,0,.056-3.249C15.975,9.6,16,8.649,15.97,7.7Zm-5.558,6.28A3.465,3.465,0,1,1,10.4,7.05,3.465,3.465,0,0,1,10.412,13.98ZM14.03,7.66a0.783,0.783,0,0,1-.79-0.784,0.781,0.781,0,1,1,1.562.017A0.783,0.783,0,0,1,14.03,7.66Zm-3.645.548A2.311,2.311,0,0,0,10.4,12.83,2.311,2.311,0,0,0,10.385,8.208Zm10.2-3.069A5.322,5.322,0,0,0,15.314.212a76.167,76.167,0,0,0-9.878.01A5.325,5.325,0,0,0,.483,3.736,7.367,7.367,0,0,0,.01,6.359c-0.023,2.284-.027,4.569-0.025,6.853A19.633,19.633,0,0,0,.1,15.784a5.456,5.456,0,0,0,5,5,46.828,46.828,0,0,0,5.612.184c1.431-.1,3.237.022,5.031-0.194a5.285,5.285,0,0,0,4.807-4.587A50.033,50.033,0,0,0,20.589,5.138Zm-3.575,9.072A3.441,3.441,0,0,1,13.884,17.2c-1.168.14-2.344,0.06-3.276,0.126a30.528,30.528,0,0,1-3.654-.12A3.552,3.552,0,0,1,3.7,13.945a12.778,12.778,0,0,1-.074-1.674c0-1.487,0-2.975.016-4.462A4.8,4.8,0,0,1,3.953,6.1,3.467,3.467,0,0,1,7.178,3.814a49.6,49.6,0,0,1,6.432-.007,3.465,3.465,0,0,1,3.434,3.207A32.565,32.565,0,0,1,17.014,14.211Z" transform="translate(0 -0.063)"/>
</svg>
